<svg version="1.1" id="Layer_1" xmlns="http://www.w3.org/2000/svg" xmlns:xlink="http://www.w3.org/1999/xlink" x="0px" y="0px"
	 width="100%" viewBox="0 0 88 69" enable-background="new 0 0 88 69" xml:space="preserve">
<path fill="#6ACBF9" opacity="1.000000" stroke="none" 
	d="
M89.000000,14.000000 
	C89.000000,32.625744 89.000000,51.251492 89.000000,69.938614 
	C59.771999,69.938614 30.543839,69.938614 1.000000,69.938614 
	C1.000000,51.646976 1.000000,33.292145 1.335503,14.278510 
	C3.528596,13.085513 5.384298,12.093896 7.244060,12.086223 
	C32.339859,11.982683 57.436489,11.967516 82.531998,12.101598 
	C84.691315,12.113134 86.844154,13.338494 89.000000,14.000000 
z"/>
<path fill="#97DDFF" opacity="1.000000" stroke="none" 
	d="
M89.000000,13.571538 
	C86.844154,13.338494 84.691315,12.113134 82.531998,12.101598 
	C57.436489,11.967516 32.339859,11.982683 7.244060,12.086223 
	C5.384298,12.093896 3.528596,13.085513 1.335503,13.809853 
	C1.000000,9.712330 1.000000,5.424660 1.000000,1.000000 
	C10.353880,1.000000 19.708281,1.000000 29.193754,1.290467 
	C31.297905,5.455525 34.029900,7.165761 38.795143,7.150259 
	C55.528999,7.095827 72.264885,7.666567 89.000000,8.000000 
	C89.000000,9.714358 89.000000,11.428718 89.000000,13.571538 
z"/>
<path fill="#000000" opacity="1.000000" stroke="none" 
	d="
M89.000000,7.502095 
	C72.264885,7.666567 55.528999,7.095827 38.795143,7.150259 
	C34.029900,7.165761 31.297905,5.455525 29.662413,1.290467 
	C49.666679,1.000000 69.333359,1.000000 89.000000,1.000000 
	C89.000000,3.034471 89.000000,5.019331 89.000000,7.502095 
z"/>
</svg>